<?xml version="1.0" encoding="UTF-8" standalone="no"?>
<!-- Created with Inkscape (http://www.inkscape.org/) -->

<svg
   width="1000"
   height="1000"
   viewBox="0 0 264.58333 264.58333"
   version="1.1"
   id="svg1"
   inkscape:version="1.4.2 (ebf0e940d0, 2025-05-08)"
   sodipodi:docname="inventory_favicon.svg"
   inkscape:export-filename="inventory_favicon.png"
   inkscape:export-xdpi="96"
   inkscape:export-ydpi="96"
   xmlns:inkscape="http://www.inkscape.org/namespaces/inkscape"
   xmlns:sodipodi="http://sodipodi.sourceforge.net/DTD/sodipodi-0.dtd"
   xmlns="http://www.w3.org/2000/svg"
   xmlns:svg="http://www.w3.org/2000/svg"
   xmlns:rdf="http://www.w3.org/1999/02/22-rdf-syntax-ns#"
   xmlns:cc="http://creativecommons.org/ns#"
   xmlns:dc="http://purl.org/dc/elements/1.1/">
  <defs
     id="defs1">
    <inkscape:path-effect
       effect="fillet_chamfer"
       id="path-effect2"
       is_visible="true"
       lpeversion="1"
       nodesatellites_param="F,0,0,1,0,0,0,1 @ F,0,0,1,0,0,0,1 @ F,0,0,1,0,0,0,1 @ F,0,0,1,0,0,0,1 @ F,0,0,1,0,0,0,1 @ F,0,0,1,0,0,0,1 @ F,0,0,1,0,0,0,1 @ F,0,0,1,0,0,0,1"
       radius="0"
       unit="px"
       method="auto"
       mode="F"
       chamfer_steps="1"
       flexible="false"
       use_knot_distance="true"
       apply_no_radius="true"
       apply_with_radius="true"
       only_selected="false"
       hide_knots="false" />
    <inkscape:path-effect
       effect="fillet_chamfer"
       id="path-effect2-7"
       is_visible="true"
       lpeversion="1"
       nodesatellites_param="F,0,0,1,0,0,0,1 @ F,0,0,1,0,0,0,1 @ F,0,0,1,0,0,0,1 @ F,0,0,1,0,0,0,1 @ F,0,0,1,0,0,0,1 @ F,0,0,1,0,0,0,1 @ F,0,0,1,0,0,0,1 @ F,0,0,1,0,0,0,1"
       radius="0"
       unit="px"
       method="auto"
       mode="F"
       chamfer_steps="1"
       flexible="false"
       use_knot_distance="true"
       apply_no_radius="true"
       apply_with_radius="true"
       only_selected="false"
       hide_knots="false" />
  </defs>
  <sodipodi:namedview
     id="base"
     pagecolor="#ffffff"
     bordercolor="#000000"
     borderopacity="0.3"
     inkscape:pageopacity="0.0"
     inkscape:pageshadow="2"
     inkscape:zoom="0.7"
     inkscape:cx="478.57143"
     inkscape:cy="512.85714"
     inkscape:document-units="mm"
     inkscape:showpageshadow="2"
     inkscape:pagecheckerboard="0"
     inkscape:deskcolor="#d1d1d1"
     inkscape:window-width="1920"
     inkscape:window-height="1023"
     inkscape:window-x="0"
     inkscape:window-y="0"
     inkscape:window-maximized="0"
     inkscape:current-layer="svg1" />
  <metadata
     id="metadata1">
    <rdf:RDF>
      <cc:Work
         rdf:about="">
        <dc:format>image/svg+xml</dc:format>
        <dc:type
           rdf:resource="http://purl.org/dc/dcmitype/StillImage" />
      </cc:Work>
    </rdf:RDF>
  </metadata>
  <path
     style="fill:#252525;fill-opacity:1;stroke-width:1.08848;stroke-linecap:round;stroke-linejoin:round;paint-order:stroke fill markers"
     id="rect1"
     width="264.58334"
     height="264.58334"
     x="0"
     y="0"
     inkscape:path-effect="#path-effect2"
     sodipodi:type="rect"
     d="M 29.482143,0 H 235.1012 c 16.33311,0 29.48214,13.149036 29.48214,29.482143 V 235.1012 c 0,16.33311 -13.14903,29.48214 -29.48214,29.48214 H 29.482143 C 13.149036,264.58334 0,251.43431 0,235.1012 V 29.482143 C 0,13.149036 13.149036,0 29.482143,0 Z"
     ry="29.482143" />
  <path
     style="fill:#393939;fill-opacity:1;stroke-width:1.08848;stroke-linecap:round;stroke-linejoin:round;paint-order:stroke fill markers"
     id="rect1-5"
     width="264.58334"
     height="264.58334"
     x="0"
     y="0"
     inkscape:path-effect="#path-effect2-7"
     sodipodi:type="rect"
     d="M 29.482143,0 H 235.1012 c 16.33311,0 29.48214,13.149036 29.48214,29.482143 V 235.1012 c 0,16.33311 -13.14903,29.48214 -29.48214,29.48214 H 29.482143 C 13.149036,264.58334 0,251.43431 0,235.1012 V 29.482143 C 0,13.149036 13.149036,0 29.482143,0 Z"
     ry="29.482143"
     transform="matrix(0.89999997,0,0,0.89999997,13.229166,13.229166)" />
  <path
     style="font-weight:bold;font-size:158.75px;font-family:'JetBrains Mono';-inkscape-font-specification:'JetBrains Mono Bold';letter-spacing:1.32292px;fill:#ffffff;stroke-width:0.529167;stroke-linecap:round;stroke-linejoin:round;paint-order:stroke fill markers"
     d="m 79.322048,212.46042 v -20.955 q -15.5575,-1.27 -24.60625,-9.8425 -8.89,-8.5725 -9.04875,-22.5425 h 19.84375 q 0,5.87375 3.65125,9.8425 3.65125,3.81 10.16,5.08 v -33.655 l -2.8575,-0.79375 q -13.6525,-3.4925 -21.11375,-12.54125 -7.3025,-9.04875 -7.3025,-21.9075 0,-13.493755 8.41375,-22.066255 8.41375,-8.73125 22.86,-10.00125 v -20.955 h 9.8425 v 20.79625 q 14.763762,1.27 23.177512,9.8425 8.5725,8.41375 8.73125,21.907505 h -19.84375 q 0,-11.747505 -12.065012,-14.128755 v 32.067505 l 5.23875,1.42875 q 13.811262,3.4925 21.113762,12.54125 7.3025,8.89 7.3025,22.06625 0,13.81125 -9.2075,22.86 -9.04875,8.89 -24.447512,10.16 v 20.79625 z m -11.43,-108.42625 q 0,5.55625 2.8575,9.68375 3.01625,4.1275 8.5725,6.0325 V 90.540415 q -11.43,2.2225 -11.43,13.493755 z m 21.2725,70.1675 q 6.50875,-0.9525 10.16,-4.7625 3.651262,-3.96875 3.651262,-10.00125 0,-5.87375 -3.651262,-10.16 -3.65125,-4.28625 -10.16,-5.715 z m 53.551742,37.94125 v -17.93875 h 76.2 v 17.93875 z"
     id="text2"
     aria-label="$_" />
</svg>
